<svg width="87" height="18" viewBox="0 0 87 18" fill="none" xmlns="http://www.w3.org/2000/svg">
<path d="M6.792 17L0.888 1.544H4.272L8.544 13.376L12.84 1.544H16.224L10.344 17H6.792ZM18.1913 3.536V0.991999H21.7193V3.536H18.1913ZM18.4553 17V8.024H16.7513L17.0393 5.624H21.6953V17H18.4553ZM24.4539 17V0.823999H27.6939V9.728L31.9419 5.624H35.6379L31.0539 10.28L35.9019 17H32.4699L29.0139 11.984L27.6939 13.256V17H24.4539ZM41.6691 17.24C40.3571 17.24 39.3811 16.896 38.7411 16.208C38.1171 15.52 37.8051 14.584 37.8051 13.4V8.12H36.1971V5.624H37.8051V3.176L41.0451 2.216V5.624H43.9251L43.7331 8.12H41.0451V13.184C41.0451 13.808 41.1891 14.24 41.4771 14.48C41.7651 14.704 42.2131 14.816 42.8211 14.816C43.2691 14.816 43.7331 14.736 44.2131 14.576V16.808C43.8611 16.952 43.4771 17.056 43.0611 17.12C42.6451 17.2 42.1811 17.24 41.6691 17.24ZM51.5638 17.24C49.4358 17.24 47.8758 16.728 46.8838 15.704C45.8918 14.664 45.3958 13.2 45.3958 11.312C45.3958 9.424 45.8918 7.968 46.8838 6.944C47.8918 5.904 49.4518 5.384 51.5638 5.384C53.6918 5.384 55.2518 5.904 56.2438 6.944C57.2518 7.968 57.7558 9.424 57.7558 11.312C57.7558 13.2 57.2598 14.664 56.2678 15.704C55.2758 16.728 53.7078 17.24 51.5638 17.24ZM51.5638 14.48C52.6038 14.48 53.3478 14.248 53.7958 13.784C54.2438 13.304 54.4678 12.48 54.4678 11.312C54.4678 10.144 54.2438 9.328 53.7958 8.864C53.3478 8.384 52.6038 8.144 51.5638 8.144C50.5398 8.144 49.8038 8.384 49.3558 8.864C48.9078 9.328 48.6838 10.144 48.6838 11.312C48.6838 12.48 48.9078 13.304 49.3558 13.784C49.8038 14.248 50.5398 14.48 51.5638 14.48ZM60.0086 17V5.624H63.0086L63.1526 6.8C63.6646 6.48 64.2966 6.192 65.0486 5.936C65.8166 5.664 66.5686 5.48 67.3046 5.384V7.832C66.8726 7.896 66.4006 7.992 65.8886 8.12C65.3766 8.248 64.8886 8.392 64.4246 8.552C63.9606 8.712 63.5686 8.88 63.2486 9.056V17H60.0086ZM68.4818 17V14.576H71.1217V17H68.4818ZM73.368 17V1.544H76.608V8.024H83.352V1.544H86.592V17H83.352V10.52H76.608V17H73.368Z" fill="#F4F4F5"/>
</svg>
