<svg width="40" height="40" viewBox="0 0 40 40" fill="none" xmlns="http://www.w3.org/2000/svg">
<path d="M15.5983 30.911C8.67524 33.0512 8.67524 27.3442 5.90601 26.6308M25.2906 35.1913V29.6698C25.3426 28.9894 25.2534 28.3055 25.029 27.6634C24.8045 27.0214 24.4501 26.4359 23.9891 25.9459C28.3368 25.4466 32.906 23.7487 32.906 15.9587C32.9057 13.9667 32.162 12.0511 30.8291 10.6084C31.4603 8.8656 31.4156 6.93926 30.7045 5.22951C30.7045 5.22951 29.0706 4.73015 25.2906 7.3411C22.1171 6.45484 18.7718 6.45484 15.5983 7.3411C11.8183 4.73015 10.1845 5.22951 10.1845 5.22951C9.4733 6.93926 9.42867 8.8656 10.0599 10.6084C8.71695 12.0618 7.97258 13.9947 7.98293 16.0015C7.98293 23.7345 12.5522 25.4323 16.8999 25.9887C16.4443 26.4738 16.093 27.0522 15.8687 27.6865C15.6445 28.3207 15.5524 28.9964 15.5983 29.6698V35.1913" stroke="white" stroke-width="3" stroke-linecap="round" stroke-linejoin="round"/>
</svg>
