<svg width="40" height="40" viewBox="0 0 40 40" fill="none" xmlns="http://www.w3.org/2000/svg">
<path d="M35 7.01401C33.6506 7.95512 32.1566 8.67491 30.5755 9.14568C29.7268 8.18087 28.599 7.49704 27.3445 7.18667C26.0899 6.8763 24.7693 6.95437 23.5611 7.41032C22.3529 7.86628 21.3155 8.67811 20.5892 9.73602C19.8629 10.7939 19.4827 12.0469 19.5 13.3254V14.7187C17.0237 14.7822 14.57 14.2391 12.3573 13.138C10.1447 12.0368 8.24181 10.4116 6.81818 8.40726C6.81818 8.40726 1.18182 20.9465 13.8636 26.5195C10.9617 28.4672 7.50463 29.4438 4 29.306C16.6818 36.2722 32.1818 29.306 32.1818 13.2836C32.1805 12.8955 32.1428 12.5084 32.0691 12.1272C33.5072 10.7249 34.5221 8.9544 35 7.01401Z" stroke="white" stroke-width="3" stroke-linecap="round" stroke-linejoin="round"/>
</svg>
